# xmcd CD database file
#
# Track frame offsets:
#	150
#	19760
#	40100
#	65360
#
# Disc length: 1094 seconds
#
# Revision: 0
# Processed by: cddbd v1.5PL3 Copyright (c) Steve Scherf et al.
# Submitted via: CDex 1.51
#
DISCID=29044404
DTITLE=Steel and Glass - 明日の行方　Initiative
DYEAR=1998
DGENRE=Rock
TTITLE0=明日の行方
TTITLE1=見つめていたい
TTITLE2=Like a Rolling Stone
TTITLE3=･･･MAYBE APPER MORE TUNES
EXTD=YEAR: 1998
EXTT0=
EXTT1=
EXTT2=
EXTT3=
PLAYORDER=
